<svg xmlns="http://www.w3.org/2000/svg" width="494" height="423" fill="none" viewBox="0 0 494 423">
  <g clip-path="url(#a)">
    <g filter="url(#b)">
      <rect width="261.959" height="165.335" x="232.041" y="257.665" fill="#fff" fill-opacity=".2" rx="14.132"/>
      <rect width="8" height="72" x="458.041" y="325.533" fill="#95ABBC" rx="4" transform="rotate(90 458.041 325.533)"/>
      <rect width="8" height="68" x="454.041" y="347.665" fill="#95ABBC" rx="4" transform="rotate(90 454.041 347.665)"/>
      <rect width="8" height="76" x="462.041" y="369.797" fill="#95ABBC" rx="4" transform="rotate(90 462.041 369.797)"/>
      <g clip-path="url(#c)">
        <path stroke="#0A2640" stroke-width="13.393" d="M346.686 351.295c0 22.051-17.832 39.902-39.798 39.902s-39.798-17.851-39.798-39.902c0-22.052 17.832-39.902 39.798-39.902s39.798 17.85 39.798 39.902Z"/>
        <mask id="d" width="74" height="122" x="232" y="287" maskUnits="userSpaceOnUse" style="mask-type:alpha">
          <path fill="#C4C4C4" d="m305.405 346.998-18.136-59.157-54.904 69.732 29.183 50.895 43.857-61.47Z"/>
        </mask>
        <g mask="url(#d)">
          <path stroke="#0DBBFC" stroke-width="13.393" d="M346.687 351.294c0 22.051-17.832 39.902-39.798 39.902s-39.798-17.851-39.798-39.902c0-22.051 17.832-39.902 39.798-39.902s39.798 17.851 39.798 39.902Z"/>
        </g>
        <mask id="e" width="91" height="85" x="281" y="282" maskUnits="userSpaceOnUse" style="mask-type:alpha">
          <path fill="#C4C4C4" d="m311.544 352.182 59.996 14.691-31.705-82.96-58.563-.953 30.272 69.222Z"/>
        </mask>
        <g mask="url(#e)">
          <path stroke="#69E6A6" stroke-width="13.393" d="M286.489 385.535c-18.892-11.286-25.093-35.772-13.846-54.693 11.246-18.922 35.678-25.11 54.571-13.824 18.892 11.285 25.092 35.772 13.846 54.693-11.246 18.921-35.679 25.109-54.571 13.824Z"/>
        </g>
      </g>
    </g>
    <ellipse cx="252.942" cy="275" fill="#FC5B00" rx="4.8" ry="5"/>
    <ellipse cx="272.142" cy="275" fill="#ECAA00" rx="4.8" ry="5"/>
    <ellipse cx="291.342" cy="275" fill="#009D10" rx="4.8" ry="5"/>
    <g filter="url(#f)">
      <g clip-path="url(#g)">
        <rect width="493.858" height="231.898" x=".142" fill="#fff" fill-opacity=".18" rx="15.03"/>
        <rect width="11.777" height="54.174" x="82.922" y="68.18" fill="#95ABBC" rx="5.888" transform="rotate(90 82.922 68.18)"/>
        <rect width="11.92" height="269.981" x="367.207" y="68.109" fill="#8FB6D5" rx="5.96" transform="rotate(90 367.207 68.11)"/>
        <path fill="#fff" d="M384.909 70.306c.776 0 1.391.18 1.845.541.454.361.681.86.681 1.496 0 .419-.13.801-.39 1.147-.26.345-.675.66-1.245.942.69.33 1.181.677 1.472 1.042.291.361.437.78.437 1.257 0 .707-.247 1.271-.739 1.694-.493.42-1.168.629-2.026.629-.908 0-1.606-.198-2.095-.594-.489-.4-.733-.964-.733-1.694 0-.974.593-1.732 1.781-2.275-.536-.303-.92-.629-1.153-.978a2.098 2.098 0 0 1-.349-1.182c0-.617.227-1.107.681-1.472.458-.369 1.069-.553 1.833-.553Zm-1.839 6.484c0 .465.161.828.483 1.088.326.26.782.39 1.368.39.578 0 1.028-.136 1.35-.407.322-.272.483-.645.483-1.118 0-.376-.151-.71-.454-1.001-.302-.295-.83-.58-1.583-.856-.578.249-.997.524-1.257.827-.26.299-.39.658-.39 1.077Zm1.828-5.698c-.485 0-.866.116-1.141.349-.276.233-.413.543-.413.931 0 .357.114.664.343.92.229.256.652.512 1.269.768.555-.233.947-.483 1.176-.75.232-.269.349-.581.349-.938 0-.392-.142-.702-.425-.931-.28-.233-.666-.35-1.158-.35Zm9.655 3.579c0 1.47-.233 2.569-.698 3.294-.462.726-1.17 1.089-2.124 1.089-.916 0-1.613-.37-2.09-1.112-.477-.745-.716-1.835-.716-3.271 0-1.482.231-2.582.693-3.3.462-.718 1.166-1.077 2.113-1.077.923 0 1.623.375 2.101 1.124.481.748.721 1.833.721 3.253Zm-4.65 0c0 1.238.145 2.14.436 2.706.292.563.755.844 1.392.844.644 0 1.109-.285 1.396-.855.291-.575.437-1.473.437-2.695 0-1.222-.146-2.117-.437-2.683-.287-.57-.752-.856-1.396-.856-.637 0-1.1.282-1.392.844-.291.559-.436 1.457-.436 2.695Zm6.658-1.705c0 .66.072 1.154.216 1.484.143.33.376.495.698.495.636 0 .955-.66.955-1.98 0-1.31-.319-1.966-.955-1.966-.322 0-.555.163-.698.488-.144.326-.216.82-.216 1.479Zm2.666 0c0 .884-.15 1.554-.448 2.008-.295.45-.73.675-1.304.675-.543 0-.966-.231-1.269-.693-.299-.462-.448-1.125-.448-1.99 0-.881.144-1.544.431-1.99.291-.447.72-.67 1.286-.67.563 0 .995.23 1.298.693.303.461.454 1.117.454 1.967Zm2.456 3.41c0 .664.072 1.16.215 1.49.144.326.379.49.705.49.325 0 .566-.162.721-.484.155-.326.233-.824.233-1.496 0-.663-.078-1.154-.233-1.472-.155-.322-.396-.483-.721-.483-.326 0-.561.16-.705.483-.143.318-.215.809-.215 1.472Zm2.671 0c0 .881-.149 1.548-.448 2.002-.295.45-.729.676-1.303.676-.551 0-.976-.231-1.275-.693-.295-.462-.442-1.123-.442-1.985 0-.88.143-1.544.43-1.99.291-.446.72-.67 1.287-.67.551 0 .979.23 1.286.687.31.454.465 1.112.465 1.973Zm-1.501-5.948-4.72 8.51h-.856l4.72-8.51h.856Z"/>
        <rect width="11.777" height="54.174" x="82.922" y="107.217" fill="#95ABBC" rx="5.888" transform="rotate(90 82.922 107.217)"/>
        <rect width="11.324" height="79.862" x="177.088" y="107.444" fill="#0DBBFC" rx="5.662" transform="rotate(90 177.088 107.444)"/>
        <path fill="#fff" d="M197.246 110.765c0 .543-.153.988-.459 1.333-.303.345-.734.576-1.292.693v.046c.683.086 1.189.303 1.519.652.329.349.494.807.494 1.374 0 .811-.281 1.435-.844 1.874-.562.434-1.361.652-2.397.652-.451 0-.864-.035-1.24-.105a4.174 4.174 0 0 1-1.088-.355v-.92c.368.183.76.322 1.175.419.419.093.815.14 1.187.14 1.471 0 2.206-.576 2.206-1.729 0-1.032-.811-1.548-2.432-1.548h-.839v-.832h.85c.664 0 1.189-.146 1.577-.437.388-.295.582-.702.582-1.222 0-.415-.143-.741-.43-.978-.284-.236-.67-.355-1.158-.355-.373 0-.724.051-1.054.152-.33.101-.706.287-1.129.558l-.489-.651a4.04 4.04 0 0 1 1.205-.647 4.368 4.368 0 0 1 1.443-.238c.827 0 1.469.19 1.927.57.458.377.686.895.686 1.554Zm7.188 2.241c0 1.471-.232 2.569-.698 3.294-.462.726-1.17 1.089-2.124 1.089-.916 0-1.613-.371-2.09-1.112-.477-.745-.716-1.835-.716-3.271 0-1.482.231-2.582.693-3.3.462-.718 1.166-1.077 2.113-1.077.923 0 1.623.375 2.101 1.124.481.748.721 1.833.721 3.253Zm-4.65 0c0 1.238.146 2.14.437 2.706.291.563.754.844 1.391.844.644 0 1.109-.285 1.396-.855.291-.575.437-1.473.437-2.695 0-1.222-.146-2.117-.437-2.683-.287-.57-.752-.856-1.396-.856-.637 0-1.1.282-1.391.844-.291.559-.437 1.457-.437 2.695Zm6.658-1.705c0 .659.072 1.154.216 1.484.143.33.376.495.698.495.636 0 .955-.66.955-1.979 0-1.312-.319-1.968-.955-1.968-.322 0-.555.163-.698.489-.144.326-.216.819-.216 1.479Zm2.666 0c0 .884-.149 1.554-.448 2.008-.295.45-.73.675-1.304.675-.543 0-.966-.231-1.269-.693-.298-.462-.448-1.125-.448-1.99 0-.881.144-1.545.431-1.991.291-.446.72-.669 1.286-.669.563 0 .995.231 1.298.692.303.462.454 1.118.454 1.968Zm2.456 3.41c0 .664.072 1.16.215 1.49.144.326.379.489.705.489.326 0 .566-.161.721-.483.156-.326.233-.824.233-1.496 0-.663-.077-1.154-.233-1.472-.155-.322-.395-.483-.721-.483-.326 0-.561.161-.705.483-.143.318-.215.809-.215 1.472Zm2.672 0c0 .881-.15 1.548-.449 2.002-.295.451-.729.676-1.303.676-.551 0-.976-.231-1.275-.693-.295-.462-.442-1.123-.442-1.985 0-.88.143-1.544.43-1.99.291-.446.72-.67 1.287-.67.551 0 .979.229 1.286.687.31.454.466 1.112.466 1.973Zm-1.502-5.948-4.72 8.509h-.856l4.72-8.509h.856Z"/>
        <rect width="11.777" height="54.174" x="82.922" y="145.956" fill="#95ABBC" rx="5.888" transform="rotate(90 82.922 145.956)"/>
        <rect width="11.92" height="317.66" x="414.885" y="145.885" fill="#fff" rx="5.96" transform="rotate(90 414.885 145.885)"/>
        <path fill="#fff" d="M433.35 156.011h-.942v-6.064c0-.505.015-.982.046-1.432a5.943 5.943 0 0 1-.273.256c-.101.089-.563.467-1.386 1.135l-.512-.664 2.253-1.74h.814v8.509Zm8.882-4.266c0 1.471-.233 2.569-.698 3.294-.462.726-1.17 1.089-2.125 1.089-.915 0-1.612-.371-2.089-1.112-.477-.745-.716-1.835-.716-3.271 0-1.482.231-2.582.693-3.3.461-.718 1.166-1.077 2.112-1.077.924 0 1.624.375 2.101 1.123.481.749.722 1.834.722 3.254Zm-4.65 0c0 1.238.145 2.14.436 2.706.291.563.755.844 1.391.844.644 0 1.11-.285 1.397-.855.291-.575.437-1.473.437-2.695 0-1.222-.146-2.117-.437-2.683-.287-.571-.753-.856-1.397-.856-.636 0-1.1.282-1.391.844-.291.559-.436 1.457-.436 2.695Zm11.471 0c0 1.471-.233 2.569-.698 3.294-.462.726-1.17 1.089-2.124 1.089-.916 0-1.613-.371-2.09-1.112-.477-.745-.716-1.835-.716-3.271 0-1.482.231-2.582.693-3.3.462-.718 1.166-1.077 2.113-1.077.923 0 1.623.375 2.101 1.123.481.749.721 1.834.721 3.254Zm-4.65 0c0 1.238.145 2.14.436 2.706.291.563.755.844 1.392.844.644 0 1.109-.285 1.396-.855.291-.575.437-1.473.437-2.695 0-1.222-.146-2.117-.437-2.683-.287-.571-.752-.856-1.396-.856-.637 0-1.101.282-1.392.844-.291.559-.436 1.457-.436 2.695Zm6.658-1.705c0 .659.072 1.154.216 1.484.143.33.376.495.698.495.636 0 .955-.66.955-1.979 0-1.312-.319-1.968-.955-1.968-.322 0-.555.163-.698.489-.144.326-.216.819-.216 1.479Zm2.666 0c0 .884-.15 1.554-.448 2.008-.295.45-.73.675-1.304.675-.543 0-.966-.231-1.269-.693-.299-.462-.448-1.125-.448-1.99 0-.881.144-1.545.431-1.991.291-.446.72-.669 1.286-.669.563 0 .995.231 1.298.692.303.462.454 1.118.454 1.968Zm2.456 3.41c0 .664.072 1.16.215 1.49.144.326.379.489.705.489.325 0 .566-.161.721-.483.155-.326.233-.824.233-1.496 0-.663-.078-1.154-.233-1.472-.155-.322-.396-.483-.721-.483-.326 0-.561.161-.705.483-.143.318-.215.809-.215 1.472Zm2.671 0c0 .881-.149 1.548-.448 2.002-.295.45-.729.676-1.303.676-.551 0-.976-.231-1.275-.693-.295-.462-.442-1.123-.442-1.985 0-.881.143-1.544.43-1.99.291-.446.72-.67 1.287-.67.551 0 .979.229 1.286.687.31.454.465 1.112.465 1.973Zm-1.501-5.948-4.72 8.509h-.856l4.72-8.509h.856Z"/>
        <rect width="11.777" height="54.174" x="82.922" y="184.695" fill="#95ABBC" rx="5.888" transform="rotate(90 82.922 184.695)"/>
        <rect width="11.324" height="253.889" x="351.115" y="184.922" fill="#65E4A3" rx="5.662" transform="rotate(90 351.115 184.922)"/>
        <path fill="#fff" d="m367.078 194.75 3.527-7.618h-4.639v-.891h5.663v.774l-3.481 7.735h-1.07Zm8.404-5.197c.896 0 1.6.223 2.113.669.516.442.774 1.05.774 1.822 0 .881-.282 1.571-.844 2.072-.559.5-1.331.751-2.317.751-.958 0-1.69-.154-2.194-.46v-.932c.272.175.609.313 1.013.414.403.097.801.145 1.193.145.683 0 1.212-.161 1.589-.483.38-.322.57-.788.57-1.397 0-1.187-.727-1.781-2.182-1.781-.369 0-.862.057-1.479.169l-.5-.32.32-3.981h4.231v.891h-3.405l-.215 2.555a6.72 6.72 0 0 1 1.333-.134Zm4.988-.774c0 .659.071 1.154.215 1.484.144.33.376.494.698.494.637 0 .955-.659.955-1.978 0-1.312-.318-1.968-.955-1.968-.322 0-.554.163-.698.489-.144.326-.215.819-.215 1.479Zm2.665 0c0 .884-.149 1.554-.448 2.008-.295.45-.729.675-1.304.675-.543 0-.966-.231-1.268-.693-.299-.462-.448-1.125-.448-1.99 0-.881.143-1.545.43-1.991.291-.446.72-.669 1.286-.669.563 0 .996.231 1.298.692.303.462.454 1.118.454 1.968Zm2.456 3.41c0 .664.072 1.16.216 1.49.143.326.378.489.704.489.326 0 .567-.161.722-.483.155-.326.233-.825.233-1.496 0-.663-.078-1.154-.233-1.472-.155-.322-.396-.483-.722-.483-.326 0-.561.161-.704.483-.144.318-.216.809-.216 1.472Zm2.672 0c0 .881-.15 1.548-.448 2.002-.295.45-.73.676-1.304.676-.551 0-.976-.231-1.275-.693-.294-.462-.442-1.123-.442-1.985 0-.881.144-1.544.431-1.99.291-.446.72-.67 1.286-.67.551 0 .98.229 1.286.687.311.454.466 1.112.466 1.973Zm-1.502-5.948-4.72 8.509h-.855l4.72-8.509h.855Z"/>
        <circle cx="18.985" cy="18.843" r="4.711" fill="#FC5B00"/>
        <circle cx="37.828" cy="18.843" r="4.711" fill="#ECAA00"/>
        <circle cx="56.671" cy="18.843" r="4.711" fill="#009D10"/>
      </g>
    </g>
    <g filter="url(#h)">
      <rect width="192.175" height="165.335" x="1.216" y="257.665" fill="#fff" fill-opacity=".18" rx="15.03"/>
    </g>
    <ellipse cx="22.113" cy="275.6" fill="#FC5B00" rx="4.72" ry="4.758"/>
    <ellipse cx="40.993" cy="275.6" fill="#ECAA00" rx="4.72" ry="4.758"/>
    <ellipse cx="59.873" cy="275.6" fill="#009D10" rx="4.72" ry="4.758"/>
    <rect width="9.305" height="23.267" fill="#0DBBFC" rx="4.652" transform="matrix(1 0 0 -1 25.909 402.528)"/>
    <rect width="9.305" height="13.484" fill="#0DBBFC" rx="4.652" transform="matrix(1 0 0 -1 44.518 392.745)"/>
    <rect width="9.305" height="62.397" x="63.127" y="316.864" fill="#0DBBFC" rx="4.652"/>
    <rect width="9.305" height="43.096" x="81.736" y="336.165" fill="#0DBBFC" rx="4.652"/>
    <rect width="9.305" height="83.02" x="100.345" y="296.241" fill="#95ABBC" rx="4.652"/>
    <rect width="9.305" height="58.696" x="118.954" y="320.565" fill="#0DBBFC" rx="4.652"/>
    <rect width="9.305" height="70.065" x="137.563" y="309.196" fill="#0DBBFC" rx="4.652"/>
    <rect width="9.305" height="31.992" x="156.173" y="347.269" fill="#0DBBFC" rx="4.652"/>
  </g>
  <defs>
    <clipPath id="a">
      <path fill="#fff" d="M.142 0H494v423H.142z"/>
    </clipPath>
    <clipPath id="c">
      <path fill="#fff" d="M260.305 304.773h93.038v93.038h-93.038z"/>
    </clipPath>
    <clipPath id="g">
      <rect width="493.858" height="231.898" x=".142" fill="#fff" rx="15.03"/>
    </clipPath>
    <filter id="b" width="528.213" height="431.589" x="98.914" y="124.538" color-interpolation-filters="sRGB" filterUnits="userSpaceOnUse">
      <feFlood flood-opacity="0" result="BackgroundImageFix"/>
      <feGaussianBlur in="BackgroundImageFix" stdDeviation="66.564"/>
      <feComposite in2="SourceAlpha" operator="in" result="effect1_backgroundBlur_76_575"/>
      <feBlend in="SourceGraphic" in2="effect1_backgroundBlur_76_575" result="shape"/>
    </filter>
    <filter id="f" width="631.279" height="369.32" x="-68.569" y="-68.711" color-interpolation-filters="sRGB" filterUnits="userSpaceOnUse">
      <feFlood flood-opacity="0" result="BackgroundImageFix"/>
      <feGaussianBlur in="BackgroundImageFix" stdDeviation="34.355"/>
      <feComposite in2="SourceAlpha" operator="in" result="effect1_backgroundBlur_76_575"/>
      <feBlend in="SourceGraphic" in2="effect1_backgroundBlur_76_575" result="shape"/>
    </filter>
    <filter id="h" width="329.596" height="302.756" x="-67.495" y="188.954" color-interpolation-filters="sRGB" filterUnits="userSpaceOnUse">
      <feFlood flood-opacity="0" result="BackgroundImageFix"/>
      <feGaussianBlur in="BackgroundImageFix" stdDeviation="34.355"/>
      <feComposite in2="SourceAlpha" operator="in" result="effect1_backgroundBlur_76_575"/>
      <feBlend in="SourceGraphic" in2="effect1_backgroundBlur_76_575" result="shape"/>
    </filter>
  </defs>
</svg>
